{
  "title": "The.Well.2014.1080p.WEB-DL.DD5.1.H264-RARBG",
  "uid": 11897199,
  "size": 3636153854,
  "categoryP": "video",
  "categoryS": "hd___movies",
  "magnet": "?xt=urn:btih:23ff41649ec258031639ad98f12599283d7dba99&amp;dn=The.Well.2014.1080p.WEB-DL.DD5.1.H264-RARBG&amp;tr=udp%3A%2F%2Ftracker.openbittorrent.com%3A80&amp;tr=udp%3A%2F%2Fopen.demonii.com%3A1337&amp;tr=udp%3A%2F%2Ftracker.coppersurfer.tk%3A6969&amp;tr=udp%3A%2F%2Fexodus.desync.com%3A6969",
  "seeders": 44,
  "leechers": 9,
  "uploader": "vickey1992",
  "files": 4,
  "time": 1431198235,
  "description": "Video\nID                                       : 1\nFormat                                   : AVC\nFormat/Info                              : Advanced Video Codec\nFormat profile                           : &lt;a class=&quot;__cf_email__&quot; href=&quot;/cdn-cgi/l/email-protection&quot; data-cfemail=&quot;753d1c121d3539415b45&quot;&gt;[email&amp;#160;protected]&lt;/a&gt;&lt;script cf-hash='f9e31' type=&quot;text/javascript&quot;&gt;\n/* &lt;![CDATA[ */!function(){try{var t=&quot;currentScript&quot;in document?document.currentScript:function(){for(var t=document.getElementsByTagName(&quot;script&quot;),e=t.length;e--;)if(t[e].getAttribute(&quot;cf-hash&quot;))return t[e]}();if(t&amp;&amp;t.previousSibling){var e,r,n,i,c=t.previousSibling,a=c.getAttribute(&quot;data-cfemail&quot;);if(a){for(e=&quot;&quot;,r=parseInt(a.substr(0,2),16),n=2;a.length-n;n+=2)i=parseInt(a.substr(n,2),16)^r,e+=String.fromCharCode(i);e=document.createTextNode(e),c.parentNode.replaceChild(e,c)}}}catch(u){}}();/* ]]&gt; */&lt;/script&gt;\nFormat settings, CABAC                   : Yes\nFormat settings, ReFrames                : 5 frames\nCodec ID                                 : V_MPEG4/ISO/AVC\nDuration                                 : 1h 34mn\nBit rate                                 : 4 621 Kbps\nWidth                                    : 1 912 pixels\nHeight                                   : 796 pixels\nDisplay aspect ratio                     : 2.40:1\nFrame rate mode                          : Constant\nFrame rate                               : 23.976 fps\nColor space                              : YUV\nChroma subsampling                       : 4:2:0\nBit depth                                : 8 bits\nScan type                                : Progressive\nBits/(Pixel*Frame)                       : 0.127\nStream size                              : 3.06 GiB (90%)\nTitle                                    : The.Well.2014.1080p.WEB-DL.DD5.1.H264-RARBG\nLanguage                                 : English\nDefault                                  : Yes\nForced                                   : No\nColor primaries                          : BT.709\nTransfer characteristics                 : BT.709\nMatrix coefficients                      : BT.709\nColor range                              : Limited\n\nAudio\nID                                       : 2\nFormat                                   : AC-3\nFormat/Info                              : Audio Coding 3\nMode extension                           : CM (complete main)\nFormat settings, Endianness              : Big\nCodec ID                                 : A_AC3\nDuration                                 : 1h 34mn\nBit rate mode                            : Constant\nBit rate                                 : 384 Kbps\nChannel(s)                               : 6 channels\nChannel positions                        : Front: L C R, Side: L R, LFE\nSampling rate                            : 48.0 KHz\nBit depth                                : 16 bits\nCompression mode                         : Lossy\nStream size                              : 261 MiB (8%)\nTitle                                    : The.Well.2014.1080p.WEB-DL.DD5.1.H264-RARBG\nLanguage                                 : English\nDefault                                  : Yes\nForced                                   : No\n\nMenu\n00:00:00.000                             : en:1\n00:10:30.000                             : en:2\n00:21:41.000                             : en:3\n00:30:16.000                             : en:4\n00:40:13.000                             : en:5\n00:50:15.000                             : en:6\n01:00:17.000                             : en:7\n01:10:14.000                             : en:8\n01:19:56.000                             : en:9\n01:28:51.000                             : en:10",
  "parsed": {
    "xt": "urn:btih:23ff41649ec258031639ad98f12599283d7dba99",
    "dn": "The.Well.2014.1080p.WEB-DL.DD5.1.H264-RARBG",
    "tr": [
      "udp://exodus.desync.com:6969",
      "udp://open.demonii.com:1337",
      "udp://tracker.coppersurfer.tk:6969",
      "udp://tracker.openbittorrent.com:80"
    ],
    "infoHash": "23ff41649ec258031639ad98f12599283d7dba99",
    "infoHashBuffer": {
      "type": "Buffer",
      "data": [
        35,
        255,
        65,
        100,
        158,
        194,
        88,
        3,
        22,
        57,
        173,
        152,
        241,
        37,
        153,
        40,
        61,
        125,
        186,
        153
      ]
    },
    "name": "The.Well.2014.1080p.WEB-DL.DD5.1.H264-RARBG",
    "announce": [
      "udp://exodus.desync.com:6969",
      "udp://open.demonii.com:1337",
      "udp://tracker.coppersurfer.tk:6969",
      "udp://tracker.openbittorrent.com:80"
    ],
    "urlList": []
  },
  "previous": 7,
  "peers": 16,
  "last_updated": "2016-12-26T19:00:58.298Z"
}